<svg width="360" height="360" viewBox="0 0 360 360" fill="none" xmlns="http://www.w3.org/2000/svg">
  <rect width="360" height="360" rx="64" fill="#0F1115"/>
  <g filter="url(#shadow)">
    <path d="M110 88C110 72.536 122.536 60 138 60H198C248 60 290 102 290 152V190C290 234 254 270 210 270H158C132 270 110 248 110 222V88Z" fill="url(#grad1)" stroke="#E6E9EE" stroke-width="6" stroke-linecap="round" stroke-linejoin="round"/>
    <path d="M138 92V232C138 240.837 145.163 248 154 248H198C236.66 248 268 216.66 268 178V150C268 114.319 239.681 86 204 86H150C143.373 86 138 80.6274 138 74V92Z" fill="#0F1115"/>
    <path d="M150 114H210" stroke="#F9B556" stroke-width="8" stroke-linecap="round"/>
    <path d="M150 140H234" stroke="#F77F53" stroke-width="8" stroke-linecap="round"/>
    <path d="M150 166H226" stroke="#F35B5B" stroke-width="8" stroke-linecap="round"/>
    <path d="M150 192H220" stroke="#F25EC2" stroke-width="8" stroke-linecap="round"/>
    <path d="M150 218H208" stroke="#8A7DF2" stroke-width="8" stroke-linecap="round"/>
    <path d="M210 150C218.284 150 225 156.716 225 165C225 173.284 218.284 180 210 180C201.716 180 195 173.284 195 165C195 156.716 201.716 150 210 150Z" fill="url(#grad2)" stroke="#F4F7FB" stroke-width="4"/>
    <path d="M105 122C88 124 72 140 72 158C72 176 86 190 104 190" stroke="#B6C3D2" stroke-width="6" stroke-linecap="round"/>
    <path d="M96 152C82 156 72 170 72 186C72 204 86 218 104 218" stroke="#B6C3D2" stroke-width="6" stroke-linecap="round"/>
    <path d="M99 184C85 188 74 202 74 218C74 236 88 250 106 250" stroke="#B6C3D2" stroke-width="6" stroke-linecap="round"/>
  </g>
  <defs>
    <linearGradient id="grad1" x1="110" y1="60" x2="290" y2="290" gradientUnits="userSpaceOnUse">
      <stop stop-color="#161A1F"/>
      <stop offset="1" stop-color="#1D2330"/>
    </linearGradient>
    <radialGradient id="grad2" cx="0" cy="0" r="1" gradientUnits="userSpaceOnUse" gradientTransform="translate(210 165) rotate(90) scale(40)">
      <stop stop-color="#F7E8C3"/>
      <stop offset="1" stop-color="#F08D5E"/>
    </radialGradient>
    <filter id="shadow" x="52" y="38" width="258" height="254" filterUnits="userSpaceOnUse" color-interpolation-filters="sRGB">
      <feFlood flood-opacity="0" result="BackgroundImageFix"/>
      <feColorMatrix in="SourceAlpha" type="matrix" values="0 0 0 0 0 0 0 0 0 0 0 0 0 0 0 0 0 0 127 0" result="hardAlpha"/>
      <feOffset dy="10"/>
      <feGaussianBlur stdDeviation="14"/>
      <feComposite in2="hardAlpha" operator="out"/>
      <feColorMatrix type="matrix" values="0 0 0 0 0.05 0 0 0 0 0.08 0 0 0 0 0.12 0 0 0 0.28 0"/>
      <feBlend mode="normal" in2="BackgroundImageFix" result="effect1_dropShadow"/>
      <feBlend mode="normal" in="SourceGraphic" in2="effect1_dropShadow" result="shape"/>
    </filter>
  </defs>
</svg>
